# xmcd
#
# Track frame offsets:
#  150
#  10890
#  23492
#  34467
#  48300
#  62479
#  74910
#  85976
#  98413
#  112551
#  131983
#  143331
#  158461
#  175982
#  193312
#  204455
#  212875
#  226592
#  239034
#  251404
#
# Disc length: 3515 seconds
#
# Revision: 0
# Processed by: cddbd v1.5.1PL2 Copyright (c) Steve Scherf et al.
# Submitted via: Collectorz.com_Music_Collector 6.10
#
DISCID=0d0db914
DTITLE=Various Artist - Country Classics The Best Of [CD3)
DYEAR=2003
DGENRE=Country
TTITLE0=Patsy Cline - Honky Tonk Merry Go Round
TTITLE1=Jerry Wallace - In The Misty Moonlight
TTITLE2=Roger Miller - King Of The Road
TTITLE3=The Kendalls - Crying Time
TTITLE4=Conway Twitty - You've Never Been This Far Before
TTITLE5=Jerry Fuller and Wynn Stewart - Wishfull Thinking
TTITLE6=Bill Anderson - I Get The Fever
TTITLE7=Merle Haggard - If We Make It Through December
TTITLE8=Lee Greenwood - I.O.U
TTITLE9=Kenny Rogers - She Believes In Me
TTITLE10=Mel McDaniel - Stand Up
TTITLE11=Ed Bruce - Mama's Don't Let Your Babies Grown Up To Be Cowboys
TTITLE12=Deborah Allen - Baby I Lied
TTITLE13=Kenny Rogers - I Swear
TTITLE14=Conway Twitty - It's Only Make Believe
TTITLE15=Johnny Cash - Country Boy
TTITLE16=Patti Page - Tennesse Waltz
TTITLE17=Faron Young - Just Out Of Reach
TTITLE18=Skeets McDonald - Don't Let The Stars Get In Your Eyes
TTITLE19=Hank Thompson - The Wild Side Of Life
EXTD=
EXTT0=
EXTT1=
EXTT2=
EXTT3=
EXTT4=
EXTT5=
EXTT6=
EXTT7=
EXTT8=
EXTT9=
EXTT10=
EXTT11=
EXTT12=
EXTT13=
EXTT14=
EXTT15=
EXTT16=
EXTT17=
EXTT18=
EXTT19=
PLAYORDER=
